# xmcd CD database file
#
# Track frame offsets:
#	200
#	22045
#	86075
#	136885
#	233450
#	280775
#
# Disc length: 4317 seconds
#
# Revision: 0
# Processed by: cddbd v1.5.2PL0 Copyright (c) Steve Scherf et al.
# Submitted via: CDex 1.70beta2
#
DISCID=4510db06
DTITLE=Gunter Hampel - Time Is Now
DYEAR=1992
DGENRE=Jazz
TTITLE0=People
TTITLE1=Time is now
TTITLE2=Serenade for Marion Brown
TTITLE3=That came down on me
TTITLE4=Song for my father
TTITLE5=Funky get down
EXTD=YEAR: 1992
EXTT0=
EXTT1=
EXTT2=
EXTT3=
EXTT4=
EXTT5=
PLAYORDER=
